# xmcd
#
# Track frame offsets:
#	150
#	9515
#	22472
#	36238
#	47311
#	59095
#	69642
#	78605
#	87462
#	98801
#	113427
#	129056
#	146242
#	154941
#	167113
#	179034
#	193150
#	204436
#	220680
#	231620
#	241786
#	251670
#	264932
#	271829
#	289213
#
# Disc length: 4107 seconds
#
# Revision: 1
# Processed by: cddbd v1.5.2PL0 Copyright (c) Steve Scherf et al.
# Submitted via: audiograbber 1.83.01
#
DISCID=74100919
DTITLE=Christoph Rois - Boogie Woogie All Ways
DYEAR=2008
DGENRE=Boogie
TTITLE0=Roll 'Em Pete (Take 1)
TTITLE1=Christophs "Benson Boogie"
TTITLE2=Meade's Idea
TTITLE3=Boogie Woogie Dream
TTITLE4=When You And I Were Young, Meggie
TTITLE5=Boogie Woogie
TTITLE6=I Had To Move That Thing
TTITLE7=Knocking On The Blues
TTITLE8=Cow Cow Blues
TTITLE9=Lady Be Goode
TTITLE10=Dedicated To Lila Ammons
TTITLE11=The Sheik Of Araby
TTITLE12=Ammons On My Mind
TTITLE13=G-Flat Blues
TTITLE14=Albert's In The Groove
TTITLE15=Kilroy Boogie
TTITLE16=Tell The "Meade" Story
TTITLE17=Boogie In The Groove
TTITLE18=Take It The Boogie Way
TTITLE19=Meade's Town Boogie (Take 1)
TTITLE20=Meade's Town Boogie (Take 2)
TTITLE21=The Master Is Here
TTITLE22=Boogie Way
TTITLE23=Bugle Boogie
TTITLE24=Roll 'Em Pete (Take 2)
EXTD=
EXTT0=
EXTT1=
EXTT2=
EXTT3=
EXTT4=
EXTT5=
EXTT6=
EXTT7=
EXTT8=
EXTT9=
EXTT10=
EXTT11=
EXTT12=
EXTT13=
EXTT14=
EXTT15=
EXTT16=
EXTT17=
EXTT18=
EXTT19=
EXTT20=
EXTT21=
EXTT22=
EXTT23=
EXTT24=
PLAYORDER=
